<?xml version="1.0" encoding="UTF-8" standalone="no"?>
<!DOCTYPE svg PUBLIC "-//W3C//DTD SVG 1.1//EN" "http://www.w3.org/Graphics/SVG/1.1/DTD/svg11.dtd"><svg width="100%" height="100%" viewBox="0 0 89954 76379" version="1.1"
  xmlns="http://www.w3.org/2000/svg" xmlns:xlink="http://www.w3.org/1999/xlink" xml:space="preserve" xmlns:serif="http://www.serif.com/"
  style="fill-rule:evenodd;clip-rule:evenodd;stroke-linejoin:round;stroke-miterlimit:2;">
  <g>
    <rect x="0" y="0" width="89953.3" height="76378.5" style="fill:#fff;" />
    <path
      d="M43184.1,25248.5c397.527,-91.044 801.544,-108.95 1194.75,-50.311c117.289,20.683 236.727,40.433 357.722,59.267c1505.56,154.011 2251.85,-380.561 2239.2,-1603.71c723.45,-1158.64 1238.27,-2450 1544.43,-3874.08c661.428,-371.289 1164.21,-1043.82 1475.62,-1925.92c-930.861,-592.589 -1778.08,-1466.67 -2541.66,-2622.22c29.934,523.456 413.884,1387.35 1151.53,2591.67c-2569.45,-1833.64 -4596.6,-3933.02 -4885.18,-7046.89c-2925.61,5151.24 -5611.44,2204.64 -7856.78,6529.94c-870.989,2300 -2110.19,3024.07 -3717.01,2172.53c-582.066,66.978 -1022.81,1.545 -1321.88,-196.294c-274.378,768.517 -559.567,1254.94 -854.939,1459.57c-602.778,767.278 -629.011,2154.63 -78.705,4161.72c1151.86,4154.32 3472.84,7653.39 6962.94,10496.9c859.261,-2231.79 1365.43,-4404.63 1518.21,-6517.89c659.256,239.506 1174.07,405.245 1544.44,497.217c289.511,-2329.32 1727.17,-3779.01 3267.29,-4131.48l0.017,-0.011Z"
      style="fill:#f9ae93;" />
    <path
      d="M30824.6,19282.4c-743.828,-415.428 -1168.83,-1170.06 -1275,-2263.89c-1694.13,-1099.69 -1707.1,-4729.32 864.2,-6962.94c404.322,-3227.16 1687.01,-5661.72 3847.84,-7303.11c-881.178,-90.434 -1779.94,-517.906 -2696.29,-1282.41c1667.9,464.817 3788.27,325 6360.78,-418.822c2798.46,-655.244 5494.44,243.206 8088.28,2695.98c337.961,236.116 756.484,560.5 1255.25,973.15c4096.3,-348.456 6374.39,3060.5 7042.28,7605.56c290.123,2177.47 573.762,4358.65 2512.96,5601.83c-2687.04,1196.92 -5003.09,1146.61 -6947.83,-151.538l-1.544,-0.928c-43.522,-29.011 -86.417,-58.334 -129.322,-88.578l-3.7,-2.472c-87.039,-61.417 -173.462,-125.311 -258.95,-191.667l-2.778,-1.85c-41.984,-32.717 -84.261,-66.044 -125.928,-100c-41.667,-33.955 -83.333,-68.517 -124.694,-103.7l-2.773,-2.161l-5.255,-4.633c-38.578,-33.023 -77.467,-66.667 -115.739,-100.623l-5.245,-4.622l-3.7,-3.7c-40.433,-35.811 -80.866,-72.228 -120.683,-109.572l-1.855,-1.233c-81.784,-76.234 -163.262,-154.939 -243.512,-236.117l-5.244,-4.933c-38.583,-39.2 -76.856,-78.4 -115.128,-118.523l-8.333,-8.944c-78.395,-82.417 -155.867,-167.289 -232.717,-254.633l-4.322,-4.634c-76.856,-87.339 -153.089,-177.466 -228.7,-270.061l-8.339,-9.872c-37.033,-45.378 -73.761,-91.056 -110.494,-137.661l-3.084,-4.006c-37.961,-48.15 -75.616,-97.227 -113.266,-146.605l-0.617,-0.617c-37.356,-49.389 -74.389,-99.383 -111.733,-149.694l-1.545,-2.467l-7.1,-9.567c-33.028,-45.372 -66.355,-91.361 -99.383,-137.966l-6.167,-8.639l-4.328,-6.484c-35.8,-50.311 -70.983,-101.233 -106.172,-152.772l-0.616,-0.622l-2.462,-3.394c-36.116,-53.089 -71.916,-106.484 -107.716,-160.806c29.933,523.456 413.883,1387.34 1151.53,2591.67c-2569.44,-1833.64 -4596.6,-3933.02 -4885.18,-7046.89c-2925.61,5151.24 -5611.44,2204.64 -7856.78,6529.94c-870.989,2300 -2110.19,3024.07 -3717.01,2172.53c-582.067,66.978 -1022.81,1.544 -1321.88,-196.294l0.016,-0.006Z"
      style="fill:#244054;" />
    <path d="M54058,73681.3c-15025,-3097.53 -22779.3,-6302.17 -22779.3,-6302.17c17864.8,-4663.89 26797.2,-6995.67 26797.2,-6995.67c-2840.12,7761.44 -4017.9,13297.8 -4017.9,13297.8l0.012,-0Z"
      style="fill:#403777;" />
    <path
      d="M54058,73681.3c-14902.8,-3341.98 -22674.7,-5333.33 -22674.7,-5333.33c0,-0 -34.839,-323.15 -104.594,-968.828c15024.7,3097.53 22537.3,4646.61 22537.3,4646.61c683.95,812.961 679.634,1609.57 241.978,1655.56l0.006,-0Z"
      style="fill:#282246;" />
    <path
      d="M53815.7,72025.7c-52.466,889.811 241.978,1655.56 241.978,1655.56l2525.61,-908.956c0,0 7297.83,-2851.54 21893.2,-8554.33c554.317,-150.928 1007.4,-613.578 1287.35,-1325.31c-0,-0 3091.67,-7336.72 9219.11,-22016.7c443.828,-963.889 379.628,-1435.81 -536.728,-1465.74c0,0 -6535.17,-183.333 -19605.9,-549.689c-2257.72,-57.716 -3075.92,574.995 -3756.17,2224.99c0,-0 -3712.66,10330.9 -11268.5,30940.1l0.022,0.033Z"
      style="fill:#403777;" />
    <path
      d="M53815.7,72025.7c-52.466,889.811 241.978,1655.56 241.978,1655.56l2525.61,-908.956c0,0 7297.83,-2851.54 21893.2,-8554.33c554.317,-150.928 1007.4,-613.578 1287.35,-1325.31c-0,-0 220.372,-522.839 660.189,-1568.82l-20932.4,6055.56c0,0 3116.37,-9506.17 9348.78,-28518.8c-2257.72,-57.717 -3075.92,574.994 -3756.17,2224.99c-0,0 -3712.35,10330.9 -11268.5,30940.1l-0.006,0.039Z"
      style="fill:#282246;" />
    <path
      d="M11568.3,71294l-5584.89,2156.48c3139.51,-9953.39 4928.39,-22556.2 4511.42,-33495.4c-61.105,-11419.4 6430.56,-17824.1 19475,-19213.3c-602.778,767.278 -629.011,2154.63 -78.705,4161.72c1151.86,4154.32 3472.84,7653.39 6962.94,10496.9c859.261,-2231.8 1365.43,-4404.63 1518.21,-6517.89c659.256,239.506 1174.07,405.244 1544.44,497.217c-87.339,1293.22 -462.344,2287.97 -1125.62,2984.27c-864.811,647.528 -917.283,1502.47 -157.094,2565.12c-3857.09,6856.17 -6666.67,10974.4 -8428.39,12354.9c-355.555,-852.472 -617.283,-1506.79 -785.494,-1962.96c-5560.78,233.334 -10150.3,791.667 -13768.5,1675.31c2451.55,9221.61 6430.22,15390.1 11936.1,18506.2c-10679.6,3860.8 -16019.4,5791.33 -16019.4,5791.33l0.011,0.078Z"
      style="fill:#244054;" />
    <path
      d="M27588,65502.9c2880.87,469.444 4895.07,-568.212 6046.61,-2957.72c520.677,-1186.73 1615.74,-2379.94 2852.78,-3834.88c3078.39,-3641.05 5242.28,-9316.67 6491.67,-17027.4c356.167,-2418.83 868.517,-3969.45 1537.65,-4652.78c829.945,578.7 1623.77,378.083 2382.11,-602.161c1812.03,-500.928 2736.72,-1975.62 2774.69,-4423.77c-8.334,-2331.79 -1199.39,-3269.76 -3573.15,-2813.89c-232.717,232.411 -525.312,598.761 -876.85,1099.38c-718.523,531.178 -1346.92,557.1 -1884.57,78.706c-1006.17,1118.83 -1778.39,1306.48 -2316.67,562.655c-473.45,139.506 -894.75,-13.889 -1263.58,-459.872l-0,0.305c-182.406,775.923 -504.633,1407.1 -967.289,1892.91c-864.811,647.528 -917.283,1502.47 -157.094,2565.12c-3857.1,6856.17 -6666.67,10974.4 -8428.39,12354.9c-355.556,-852.472 -617.284,-1506.79 -785.495,-1962.96c-5560.78,233.333 -10150.3,791.667 -13768.5,1675.31c2451.55,9221.61 6430.22,15390.1 11936.1,18506.2l-0.027,-0.016Z"
      style="fill:#f9ae93;" />
    <path
      d="M27640.2,65354.6c1385.81,221.3 2562.35,86.422 3530.25,-386.728c985.183,-482.1 1759.88,-1318.83 2324.38,-2490.12l0.617,-0.928c464.811,-1055.86 1362.96,-2103.09 2411.73,-3326.23l461.727,-540.433c1527.78,-1806.79 2829.32,-4121.3 3904.94,-6942.61c1078.39,-2828.71 1929.32,-6164.83 2551.85,-10007.1c179.016,-1218.83 398.466,-2220.07 657.411,-3003.4c263.583,-797.839 571.294,-1376.55 923.155,-1735.49c55.239,-56.484 142.895,-61.423 204.006,-14.506c374.078,259.256 736.422,344.75 1086.42,256.172c362.35,-91.672 722.538,-368.216 1079.32,-829.939c21.3,-27.466 50.005,-45.683 81.178,-54.322c867.283,-239.816 1521.92,-711.733 1963.27,-1415.43c446.922,-712.661 679.628,-1666.36 698.15,-2861.12c-1.233,-341.045 -29.011,-652.467 -82.711,-933.334c-118.833,-619.133 -366.672,-1080.56 -742.289,-1383.64c-377.466,-304.017 -890.433,-454.939 -1538.89,-452.784c-296.294,0.928 -622.839,34.572 -978.705,100.617c-103.389,106.489 -219.75,240.433 -348.767,402.161c-144.133,180.867 -303.389,395.372 -477.467,643.217c-11.416,16.355 -25.611,29.933 -41.355,40.433c-382.411,280.55 -745.372,428.389 -1089.19,442.583c-309.572,12.973 -598.155,-80.855 -865.433,-281.166c-484.261,516.666 -921.917,822.839 -1312.65,917.594c-422.223,102.772 -782.106,-28.094 -1079.94,-392.283c-231.173,49.994 -452.161,36.728 -662.961,-39.817c-161.423,-58.955 -315.123,-154.322 -460.184,-286.728c-85.189,293.517 -191.983,566.05 -320.683,817.589c-168.211,329.322 -373.145,620.984 -614.195,873.767c-7.716,8.644 -16.666,16.05 -25.927,22.222c-389.811,293.828 -596.611,629.628 -619.45,1007.41c-24.067,391.055 143.522,837.655 502.161,1339.2c35.811,50.305 37.344,114.816 8.955,165.427c-1929.94,3431.18 -3599.07,6178.72 -5007.1,8242.28c-1413.27,2071.92 -2567.28,3458.33 -3461.11,4158.95c-67.283,52.467 -164.505,40.434 -216.972,-26.539c-8.644,-11.427 -15.744,-23.461 -20.989,-35.811c-176.544,-422.839 -331.172,-800.305 -463.583,-1132.09c-112.961,-282.411 -208.022,-525.928 -284.878,-731.172c-5421.29,232.1 -9912.33,775.305 -13472.2,1629.02c1216.36,4526.85 2804.02,8309.22 4762.65,11346c1969.44,3054.01 4314.82,5353.7 7035.5,6899.06l-0.005,0.044Zm3666.02,-109.261c-1032.07,504.628 -2278.67,648.15 -3739.78,410.806c-18.822,-2.784 -37.344,-8.95 -54.939,-18.828c-2774.99,-1570.37 -5164.19,-3908.64 -7167.28,-7014.5c-1997.84,-3097.53 -3612.34,-6960.17 -4842.28,-11587.1l-0.617,-3.089c-20.061,-82.716 31.173,-166.355 113.889,-186.416c3625.62,-885.189 8222.22,-1445.06 13788.9,-1679.02c69.139,-7.405 136.728,32.722 161.728,100.622c84.878,230.55 191.667,507.095 320.372,828.706c109.567,273.45 237.034,586.111 382.406,936.722c845.678,-716.044 1924.97,-2036.42 3237.66,-3960.49c1390.12,-2037.65 3038.58,-4749.38 4945.06,-8134.89c-362.038,-529.316 -529.627,-1014.82 -502.472,-1455.86c28.711,-471.3 275.006,-882.411 737.967,-1232.72c218.211,-230.556 403.4,-495.056 555.555,-792.9c154.939,-303.089 276.85,-643.511 365.123,-1020.37c7.711,-32.095 25.311,-61.728 52.472,-84.256c65.739,-54.633 163.572,-45.372 217.894,20.372c166.673,201.856 341.978,336.112 525.928,403.084c176.545,64.2 365.745,67.289 567.289,9.261c62.967,-21.917 135.183,-1.239 176.233,55.555c228.7,315.739 502.473,434.878 821.295,357.717c354.016,-86.111 771.911,-396.605 1252.78,-931.178l1.544,-1.539c56.794,-63.888 154.628,-69.444 218.522,-12.655c237.961,211.422 493.211,311.728 765.734,300.305c276.238,-11.416 577.777,-135.8 903.705,-372.833c172.222,-244.139 330.245,-456.789 474.078,-637.039c146.605,-183.95 280.239,-336.111 400,-456.178c21.6,-24.383 51.539,-42.277 86.111,-48.755c390.122,-75.006 751.539,-112.972 1083.64,-114.206c721.3,-2.466 1299.08,170.989 1732.72,520.684c435.183,350.922 719.45,873.15 852.466,1566.36c57.1,296.911 86.422,627.161 87.656,990.745l-0,4.316c-19.139,1253.4 -267.895,2261.11 -745.672,3022.53c-475.006,757.722 -1172.53,1269.14 -2092.91,1534.57c-391.044,494.134 -796.917,794.75 -1217.28,900.928c-404.634,102.156 -815.128,24.689 -1230.25,-232.405c-282.711,329.933 -537.65,837.338 -763.889,1522.52c-253.7,767.289 -469.134,1751.24 -645.678,2951.24l-0.617,1.855c-626.544,3867.28 -1482.4,7224.39 -2567.59,10070.7c-1087.96,2854.01 -2407.72,5198.15 -3958.33,7032.39l-463.272,541.666c-1033.33,1205.25 -1918.22,2237.66 -2364.2,3250.62l-4.317,9.878c-595.066,1234.57 -1417.29,2119.13 -2467.32,2633.02l-0.006,0.05Z"
      style="fill:#010101;fill-rule:nonzero;" />
    <path
      d="M42259.6,45451.3c754.317,-1077.16 1131.48,-1615.73 1131.48,-1615.73c1115.74,-119.139 2197.53,-206.484 3245.98,-261.728c439.206,-3120.07 411.734,-5372.53 -82.405,-6757.11c-653.389,633.95 -1332.71,705.25 -2037.96,213.277c-669.134,683.328 -1181.48,2233.95 -1537.65,4652.78c-213.278,1315.43 -453.089,2571.61 -719.445,3768.51l0,0.006Z"
      style="fill:#244054;" />
    <path
      d="M42149.6,45561.3c-35.489,-36.722 -53.083,-89.811 -41.361,-143.206c131.795,-591.977 258.028,-1203.7 378.4,-1834.87c119.756,-628.711 232.717,-1266.98 337.656,-1915.13l0.922,-7.716c179.322,-1218.52 398.772,-2219.76 657.717,-3003.09c263.583,-797.839 571.294,-1376.55 923.155,-1735.49c51.85,-52.778 135.795,-62.039 198.45,-18.217c320.989,223.767 632.411,319.761 934.261,288.278c301.545,-31.483 601.545,-191.356 900.306,-478.706c26.855,-30.244 65.744,-49.383 108.644,-51.233l6.478,-0.305c63.894,-0 123.461,39.805 146.3,103.077c252.167,707.417 385.494,1633.65 399.378,2778.09c13.894,1134.88 -89.5,2485.81 -310.178,4052.47c-9.878,72.223 -70.061,129.317 -145.378,133.334c-516.044,27.155 -1047.53,62.655 -1593.82,106.789c-521.911,41.972 -1046.6,91.05 -1573.77,146.916l-1083.03,1546.29c-6.478,11.734 -14.812,22.539 -24.684,32.717c-60.5,60.494 -158.955,60.494 -219.45,-0Zm422.222,-825.306c0,0 692.289,-988.583 692.289,-988.583c26.539,-38.272 67.284,-60.489 110.178,-65.117c564.511,-60.8 1115.44,-112.661 1651.86,-155.866c493.211,-39.817 984.572,-73.15 1474.69,-100c206.483,-1499.69 303.4,-2793.21 290.122,-3879.94c-12.034,-991.361 -115.434,-1810.5 -310.489,-2456.79c-295.372,240.739 -598.767,377.467 -910.183,409.878c-340.123,35.489 -683.028,-53.706 -1029.02,-267.9c-282.711,329.627 -537.65,837.339 -763.889,1522.52c-253.7,767.289 -469.133,1751.24 -645.678,2951.24l-2.466,12.344c-106.789,660.5 -219.75,1301.55 -338.273,1922.22c-70.372,368.828 -143.522,734.262 -219.139,1095.99Z"
      style="fill:#010101;fill-rule:nonzero;" />
    <path
      d="M44588.5,37166.8c-75.611,39.812 -169.444,10.8 -209.255,-64.511c-39.512,-75.616 -10.5,-169.444 64.816,-209.255c854.628,-453.4 1606.17,-994.75 2254.31,-1623.46c647.234,-628.089 1192.29,-1344.76 1634.58,-2149.07c41.35,-75.006 135.489,-102.472 210.489,-61.117c74.694,41.05 102.161,135.189 61.111,210.184c-456.789,830.872 -1020.68,1571.61 -1690.43,2221.61c-669.45,649.695 -1444.76,1208.34 -2325.62,1675.62Z"
      style="fill:#010101;fill-rule:nonzero;" />
    <path
      d="M46901.3,36273.5c85.494,1.545 153.083,72.228 151.544,157.406c-1.544,85.494 -72.222,153.089 -157.405,151.544c-221.295,-4.633 -424.384,-27.161 -608.95,-66.972c-187.661,-40.745 -359.572,-100.306 -515.434,-178.395c-76.233,-38.272 -107.405,-130.866 -69.133,-207.105c38.272,-76.233 130.861,-107.406 207.095,-69.133c130.25,65.433 278.088,116.044 442.9,151.544c168.522,36.417 351.855,56.789 549.383,61.111Z"
      style="fill:#010101;fill-rule:nonzero;" />
    <path
      d="M38765.2,35011.8c-45.372,72.228 -141.05,93.828 -213.278,48.462c-72.217,-45.373 -93.828,-141.05 -48.45,-213.273c354.011,-559.261 667.589,-1071.6 940.433,-1536.42c272.217,-463.889 506.167,-883.65 701.234,-1259.57c39.194,-75.922 132.405,-105.861 208.333,-66.661c75.922,39.195 105.861,132.406 66.661,208.334c-195.672,377.155 -432.405,802.155 -709.567,1274.38c-276.544,470.678 -591.666,985.8 -945.366,1544.74Z"
      style="fill:#010101;fill-rule:nonzero;" />
    <path
      d="M46554.6,36816.8c115.434,-112.033 230.25,-241.661 344.145,-388.883c1812.03,-500.928 2736.72,-1975.62 2774.69,-4423.77c-8.334,-2331.79 -1199.39,-3269.76 -3573.15,-2813.89c-232.717,232.411 -525.312,598.761 -876.85,1099.38c-718.523,531.178 -1346.92,557.1 -1884.57,78.706c-1006.17,1118.83 -1778.39,1306.48 -2316.67,562.655c-473.45,139.506 -894.75,-13.888 -1263.58,-459.872l-0,0.306c79.017,-336.422 131.789,-700.306 158.328,-1091.36c364.2,-2930.56 2545.38,-4468.52 4462.04,-4181.79c1016.98,179.016 2172.84,292.283 3468.22,340.122c696.289,18.833 1141.36,372.228 1334.88,1060.19c564.194,88.889 856.478,420.367 877.156,994.755c775.005,61.417 1128.39,837.956 1059.88,2329.63c611.106,1531.17 850.923,3638.27 720.061,6321.61c116.356,3649.38 543.828,6484.89 1282.72,8507.11c1330.25,4437.97 1120.99,8713.56 -628.089,12826.2c-935.489,1948.45 -3064.5,1922.22 -5248.45,314.194c-2553.7,-1957.09 -4215.43,-6103.72 -4985.8,-12440.7c754.316,-1077.16 1131.48,-1615.73 1131.48,-1615.73c1115.75,-119.139 2197.53,-206.484 3245.98,-261.728c439.205,-3120.07 411.733,-5372.53 -82.406,-6757.11l0,-0.023Z"
      style="fill:#f9ae93;" />
    <path
      d="M46454.6,36697.9c53.084,-52.162 105.861,-107.412 157.1,-165.128c54.322,-61.422 109.261,-128.084 164.5,-199.689c21.3,-27.467 50.006,-45.683 81.178,-54.322c867.283,-239.817 1521.92,-711.734 1963.27,-1415.43c446.922,-712.661 679.627,-1666.36 698.15,-2861.12c-1.234,-341.044 -29.011,-652.466 -82.711,-933.333c-118.834,-619.133 -366.673,-1080.56 -742.289,-1383.64c-377.467,-304.017 -890.434,-454.939 -1538.89,-452.783c-296.295,0.927 -622.839,34.572 -978.706,100.616c-103.389,106.489 -219.75,240.434 -348.766,402.161c-144.134,180.867 -303.389,395.373 -477.467,643.217c-11.417,16.356 -25.611,29.933 -41.356,40.433c-382.411,280.55 -745.372,428.389 -1089.19,442.584c-309.572,12.972 -598.156,-80.856 -865.433,-281.167c-484.262,516.667 -921.917,822.839 -1312.66,917.595c-422.222,102.772 -782.106,-28.095 -1079.94,-392.284c-231.172,49.995 -452.161,36.728 -662.961,-39.816c-237.039,-86.423 -456.794,-251.856 -658.956,-496.3c-31.788,-38.578 -41.972,-88.267 -31.483,-133.645c38.583,-165.117 70.989,-335.8 96.3,-512.339c25.928,-177.778 45.372,-362.344 58.022,-554.011l0.928,-8.644c6.178,-51.856 13.895,-107.1 22.528,-164.2c214.511,-1434.26 860.189,-2532.41 1692.9,-3243.21c839.812,-716.978 1870.37,-1040.43 2843.82,-919.75l85.805,12.033c507.106,89.194 1045.68,161.733 1614.82,217.594c575.005,56.478 1184.87,96.606 1829.63,120.373l3.394,0.305c380.556,10.806 695.372,115.122 943.522,312.039c227.473,180.556 395.367,436.728 503.395,767.589c272.222,58.339 485.183,174.389 637.961,347.533c146.294,166.056 234.261,381.178 263.272,644.45c380.25,69.134 661.106,303.389 842.283,701.539l5.245,13.272c180.25,404.634 254.633,980.245 223.455,1726.23c304.017,772.527 516.05,1685.19 635.806,2737.96c120.678,1059.26 148.15,2263.58 82.717,3611.73c58.027,1813.27 193.827,3426.23 406.483,4838.58c212.344,1408.33 501.544,2613.27 866.972,3613.89l2.784,8.333c670.366,2235.18 952.461,4431.18 846.911,6586.72c-105.245,2156.18 -599.073,4270.99 -1480.87,6344.11l-7.094,14.506c-94.139,194.75 -199.384,370.678 -315.123,527.467c-443.833,602.777 -1038.59,937.655 -1726.24,1023.46c-674.683,84.261 -1437.03,-74.072 -2231.47,-455.244c-395.684,-189.817 -798.773,-434.567 -1202.17,-731.789l-2.467,-1.856c-1299.38,-995.677 -2370.06,-2543.52 -3211.42,-4643.2c-836.117,-2086.42 -1447.53,-4720.68 -1834.26,-7902.17c-5.25,-43.517 8.333,-84.878 34.255,-116.672l1124.39,-1605.56c26.539,-38.272 67.283,-60.489 110.178,-65.116c564.511,-60.8 1115.44,-112.661 1651.86,-155.867c493.211,-39.817 984.573,-73.15 1474.69,-100c206.484,-1499.69 303.4,-2793.21 290.122,-3879.94c-13.577,-1104.94 -140.427,-1995.37 -380.861,-2671.91c-7.094,-17.906 -11.111,-37.344 -11.111,-57.722c0,-47.522 21.6,-89.811 55.25,-118.511l0,0.039Zm388.272,39.811c-37.038,41.666 -73.772,81.483 -110.188,119.133c231.788,695.061 354.322,1590.12 367.588,2685.49c13.895,1134.88 -89.5,2485.81 -310.177,4052.47c-9.878,72.222 -70.061,129.316 -145.378,133.333c-516.045,27.156 -1047.53,62.656 -1593.82,106.789c-521.911,41.972 -1046.6,91.05 -1573.77,146.917l-1056.48,1508.64c383.639,3129.32 986.106,5718.22 1806.48,7765.72c820.367,2046.92 1857.72,3551.23 3112.03,4512.34c388.584,286.117 774.389,520.372 1150.31,700.928c739.823,354.939 1443.83,503.089 2060.49,426.233c602.778,-75.305 1124.69,-369.133 1514.51,-898.761c105.245,-143.211 201.239,-303.089 286.423,-479.017l0.311,-0.922c867.589,-2039.51 1353.09,-4118.83 1456.79,-6237.94c103.705,-2119.13 -174.384,-4280.24 -834.261,-6482.39c-371.917,-1020.07 -665.128,-2241.97 -879.939,-3665.74c-213.889,-1420.06 -350.306,-3045.67 -408.95,-4876.54l-0,-17.589c64.816,-1332.72 37.65,-2522.23 -81.478,-3568.21c-117.906,-1037.66 -326.856,-1932.11 -625.311,-2683.03c-9.567,-20.989 -14.195,-44.75 -13.267,-69.445c32.706,-714.2 -32.411,-1254.32 -195.067,-1619.44l-5.555,-11.116c-151.239,-332.717 -390.745,-512.039 -716.972,-537.961c-77.473,-6.478 -139.506,-69.756 -142.595,-149.078c-8.644,-249.695 -74.383,-444.133 -196.3,-582.4c-120.366,-136.428 -300.616,-224.695 -540.433,-263.583c-62.028,-5.862 -116.972,-49.078 -134.567,-112.35c-87.655,-311.723 -229.933,-545.984 -426.544,-701.85c-194.756,-154.939 -448.456,-236.728 -760.178,-245.678l-4.639,-0c-650.611,-24.078 -1266.67,-64.511 -1847.83,-121.606c-584.567,-57.411 -1130.87,-130.861 -1638.89,-220.066l-70.372,-9.562c-888.884,-110.188 -1832.72,187.65 -2604.94,846.912c-779.628,665.744 -1385.19,1699.08 -1587.65,3053.39l-21.3,156.172c-13.272,196.295 -33.639,386.111 -60.189,569.445c-23.145,159.566 -50.922,313.577 -83.639,461.727c151.85,170.062 310.806,285.495 476.85,345.989c176.544,64.2 365.744,67.289 567.289,9.261c62.967,-21.916 135.183,-1.238 176.233,55.556c228.7,315.739 502.472,434.878 821.295,357.717c354.016,-86.111 771.911,-396.606 1252.78,-931.178l1.545,-1.539c56.794,-63.889 154.628,-69.444 218.522,-12.656c237.961,211.423 493.211,311.728 765.733,300.306c276.239,-11.417 577.778,-135.8 903.706,-372.833c172.222,-244.139 330.244,-456.789 474.078,-637.039c146.605,-183.95 280.239,-336.111 400,-456.178c21.6,-24.383 51.539,-42.278 86.111,-48.756c390.122,-75.005 751.539,-112.972 1083.64,-114.205c721.3,-2.467 1299.08,170.989 1732.72,520.683c435.184,350.922 719.45,873.15 852.467,1566.36c57.1,296.911 86.422,627.161 87.656,990.744l-0,4.317c-19.139,1253.4 -267.895,2261.11 -745.673,3022.53c-475.005,757.722 -1172.53,1269.14 -2092.59,1534.57c-48.15,60.8 -97.228,119.139 -146.606,175l0,-0.022Z"
      style="fill:#010101;fill-rule:nonzero;" />
    <path
      d="M46482.4,43562.4c6.483,-85.189 80.861,-149.378 166.05,-142.9c85.183,6.172 149.383,80.55 142.894,166.044c-57.4,755.867 -136.105,1450.62 -235.488,2084.26c-98.767,630.244 -217.906,1195.06 -357.1,1693.83c-175.306,794.75 -304.939,1550.92 -389.195,2267.9c-84.567,719.744 -124.078,1400.92 -118.522,2042.59c0.617,85.494 -67.9,155.25 -153.083,155.866c-85.495,0.617 -155.25,-68.211 -155.867,-153.394c-5.556,-658.339 33.955,-1352.16 119.45,-2080.25c86.1,-731.172 217.583,-1497.84 394.133,-2299.38l2.467,-8.645c137.961,-492.283 255.555,-1047.84 352.472,-1665.74c97.217,-618.522 174.378,-1305.25 231.789,-2060.18Z"
      style="fill:#010101;fill-rule:nonzero;" />
    <path
      d="M39965.7,30211.3c-36.727,77.461 -129.322,110.178 -206.789,73.45c-77.161,-36.722 -109.877,-129.317 -73.155,-206.789c429.639,-900 926.855,-1762.04 1491.67,-2585.49c564.195,-822.534 1195.68,-1606.17 1894.14,-2350.31c58.328,-62.338 156.478,-65.116 218.511,-6.788c62.35,58.644 65.439,156.794 6.789,218.827c-687.344,732.411 -1308.64,1503.39 -1863.58,2312.66c-554.933,808.639 -1044.13,1657.11 -1467.59,2544.45Z"
      style="fill:#010101;fill-rule:nonzero;" />
    <path
      d="M41162.4,30996.3c-36.111,77.161 -128.394,110.489 -205.556,74.689c-77.161,-36.106 -110.494,-128.084 -74.694,-205.55c762.961,-1634.57 1562.35,-3197.53 2658.33,-4131.18c1119.44,-954.317 2529.32,-1252.47 4483.96,-314.194c76.85,36.727 109.561,129.011 72.833,206.172c-36.728,76.85 -129.316,109.261 -206.172,72.533c-1820.06,-873.767 -3122.83,-604.633 -4149.69,270.367c-1050.31,895.372 -1831.48,2425 -2579.01,4027.16Z"
      style="fill:#010101;fill-rule:nonzero;" />
    <path
      d="M43479.1,30432.9c-35.806,77.472 -127.778,111.416 -205.25,75.616c-77.778,-35.8 -111.723,-127.772 -75.923,-205.244c653.389,-1410.81 1481.79,-2366.36 2484.26,-2866.67c1007.72,-502.783 2183.03,-543.205 3525.62,-121.917c81.489,25.312 127.166,112.345 101.855,193.828c-25.622,81.789 -112.344,127.161 -194.139,101.856c-1262.96,-396.606 -2361.42,-362.034 -3295.06,103.7c-937.961,468.205 -1718.52,1374.38 -2341.36,2718.83Z"
      style="fill:#010101;fill-rule:nonzero;" />
    <path
      d="M33116.3,63669c-79.939,30.555 -169.75,-9.567 -200,-89.506c-30.556,-79.939 9.561,-169.755 89.505,-200l14357.4,-5508.33c79.939,-30.556 169.445,9.566 200,89.505c30.25,79.939 -9.872,169.445 -89.816,200l-14357.1,5508.33l0.033,-0Zm19999.7,-7450.33c-79.628,29.628 -168.823,-11.111 -198.45,-91.05c-29.945,-79.939 10.794,-168.827 90.738,-198.461l3810.8,-1414.81c79.939,-29.633 168.828,11.111 198.762,91.05c29.633,79.933 -11.106,168.822 -91.045,198.456l-3810.81,1414.82Z"
      style="fill:#010101;fill-rule:nonzero;" />
    <path
      d="M33060.7,63524.6l-0.305,-0.305c210.494,-295.989 401.85,-622.223 573.766,-979.011c520.678,-1186.73 1615.74,-2379.94 2852.78,-3834.88c1209.57,-1430.56 2277.78,-3175.31 3204.94,-5233.95c-358.644,3140.43 -981.172,5880.56 -1867.28,8220.39c-3175.93,1218.52 -4763.9,1827.77 -4763.9,1827.77l0,-0.017Z"
      style="fill:#244054;" />
    <path
      d="M32931.8,63610.7c-39.2,-58.644 -33.338,-133.95 9.562,-185.494c100.616,-142.283 196.605,-291.05 287.344,-445.989c92.594,-158.022 181.178,-325 266.056,-501.233l0.616,-0.928c465.117,-1056.17 1363.58,-2104.01 2412.65,-3327.47l460.806,-539.195c599.994,-709.261 1164.81,-1496.91 1694.44,-2362.04c530.245,-865.739 1025.93,-1811.11 1487.35,-2835.49c35.183,-77.778 126.85,-112.656 204.939,-77.467c62.961,28.089 97.533,93.517 90.127,158.639c-179.633,1574.38 -425.927,3050.01 -738.589,4426.86c-312.961,1377.47 -692.277,2654.63 -1137.65,3830.56c-16.05,43.211 -49.694,74.695 -89.816,89.817l-4763.89,1828.08c-68.822,26.234 -144.75,0 -183.945,-58.639Zm563.578,-475.311c0,0 -43.522,73.15 -43.522,73.15l4252.78,-1631.48c429.939,-1145.68 796.916,-2387.04 1100.62,-3724.08c245.373,-1080.24 449.695,-2224.07 612.967,-3431.48c-345.372,701.85 -708.95,1364.51 -1090.74,1987.97c-538.578,879.628 -1112.65,1680.24 -1722.22,2400.92l-462.044,540.434c-1033.95,1205.87 -1919.44,2238.58 -2365.43,3251.85l-4.317,9.877c-86.733,180.245 -179.633,354.628 -278.089,522.839Z"
      style="fill:#010101;fill-rule:nonzero;" />
    <path
      d="M36010.7,17354c-26.239,81.172 -113.589,125.622 -195.066,99.383c-81.173,-26.55 -125.617,-113.889 -99.378,-195.067c437.339,-1335.8 531.172,-2936.72 322.217,-4349.99c-201.545,-1361.42 -682.1,-2541.06 -1403.7,-3125.31c-61.423,-49.695 -74.384,-137.345 -33.028,-202.778c959.878,-1509.57 2500.62,-2682.72 4621.61,-3518.83c2104.63,-829.939 4784.26,-1328.7 8038.28,-1495.68c85.495,-4.316 158.339,61.417 162.656,146.606c4.327,85.494 -61.417,158.333 -146.606,162.656c-3219.74,165.122 -5867.28,656.788 -7941.67,1474.69c-2004.63,790.128 -3471.29,1885.19 -4400,3284.57c725.617,659.261 1206.48,1861.73 1408.95,3229.32c215.428,1456.79 117.9,3109.26 -334.255,4490.43l-0.006,-0Z"
      style="fill:#010101;fill-rule:nonzero;" />
    <path
      d="M46072.4,3603.64c79.317,31.794 117.589,121.916 86.106,201.239c-31.784,79.011 -122.223,117.594 -201.228,85.8c-2957.1,-1187.03 -5716.33,-1162.35 -8054.61,-287.039c-2577.16,964.511 -4647.53,2963.89 -5910.5,5512.65c-19.1,38.889 -52.434,66.361 -90.706,78.7c-256.205,83.334 -497.528,204.634 -724.383,363.584c-228.395,159.566 -443.517,358.644 -645.061,596.916c-54.939,65.117 -152.778,73.456 -217.9,18.206c-65.434,-54.933 -73.456,-152.778 -18.211,-218.206c217.594,-257.1 452.777,-474.077 704.322,-650.311c234.261,-163.889 482.372,-291.972 743.522,-383.639c1299.68,-2590.13 3417.28,-4621.61 6051.22,-5607.39c2407.41,-901.233 5243.83,-928.7 8277.44,289.506l-0.017,-0.022Z"
      style="fill:#010101;fill-rule:nonzero;" />
    <path
      d="M32128,19632.9c-84.878,-10.495 -145.367,-87.967 -135.217,-172.839c10.522,-84.878 87.994,-145.373 172.872,-135.189c167.25,20.989 331.789,7.405 491.322,-37.039c542.011,-151.233 1045.41,-658.945 1452.81,-1416.66c417.906,-778.089 730.245,-1814.51 877.467,-3000c192.595,-1552.16 102.161,-3355.56 -403.7,-5166.67c-22.528,-82.095 25.617,-167.284 108.028,-190.123c82.094,-22.839 167.283,25.311 190.122,107.717c517.589,1853.71 610.495,3698.77 413.267,5286.73c-151.85,1223.45 -476.545,2297.53 -912.65,3108.95c-446.911,831.478 -1015.43,1392.89 -1642.9,1568.21c-199.728,55.55 -404.322,72.523 -611.422,46.912Z"
      style="fill:#010101;fill-rule:nonzero;" />
    <path
      d="M34611.3,9567.53c52.778,-66.973 150.005,-78.395 216.672,-25.617c66.972,52.778 78.395,150 25.617,216.978c-236.117,299.072 -441.667,602.466 -616.056,909.566c-170.061,299.378 -310.178,602.162 -420.366,908.339c-21.295,219.439 -29.012,444.75 -22.839,675.306c6.172,236.105 27.466,480.861 63.583,733.333l0.306,3.089c37.966,300.306 40.738,615.117 9.255,943.822c-31.789,327.161 -97.217,665.739 -196.911,1015.13l-4.633,13.883c-93.823,278.706 -277.467,434.262 -482.095,487.967c-108.022,28.083 -220.678,27.156 -327.783,0c-105.861,-26.855 -207.128,-79.017 -294.128,-153.394c-187.344,-159.884 -309.261,-421.611 -266.978,-750.311l2.161,-12.656c291.356,-1378.08 160.8,-2400.01 -203.088,-3031.17c-170.4,-295.678 -392.284,-503.089 -643.823,-617.906c-248.766,-113.578 -530.555,-137.65 -823.461,-67.9c-537.655,129.011 -1113.89,568.828 -1611.11,1345.37c-46.294,71.912 -141.972,92.595 -213.889,46.606c-71.911,-46.294 -92.9,-141.978 -46.605,-213.894c543.522,-848.762 1188.58,-1333.33 1800,-1479.01c361.422,-85.806 711.389,-54.939 1023.46,87.344c309.566,141.362 579.316,391.978 783.294,745.678c398.495,691.361 546.645,1789.19 238.311,3246.3c-23.766,208.033 49.995,370.066 162.956,466.361c49.694,42.594 108.028,72.533 168.528,87.966c58.327,14.812 118.511,15.739 174.689,1.228c108.95,-28.394 209.566,-119.439 266.05,-286.722c95.366,-334.572 158.022,-654.633 187.338,-959.878c29.323,-303.705 26.239,-595.989 -8.95,-877.161c-36.727,-259.878 -58.95,-515.739 -65.427,-766.978c-6.789,-247.839 1.855,-489.5 25.311,-724.072c0.616,-15.122 3.389,-30.244 8.633,-45.061c116.667,-328.089 266.361,-652.783 449.078,-974.072c181.178,-319.139 395.678,-635.5 642.9,-948.461Z"
      style="fill:#010101;fill-rule:nonzero;" />
    <path
      d="M29485.7,17159c-77.777,-35.495 -111.727,-127.161 -76.544,-204.628c35.494,-77.778 127.161,-112.039 204.939,-76.545c80.244,37.039 162.961,64.812 246.294,83.645c369.756,83.95 766.361,-6.789 1134.57,-253.706c381.144,-255.555 731.178,-677.166 992.283,-1245.68c126.856,-276.539 232.411,-587.656 310.5,-930.861c18.789,-83.339 101.545,-135.806 184.872,-116.978c83.028,18.517 135.462,101.545 116.978,184.878c-83.061,364.511 -195.683,695.683 -331.172,991.355c-285.8,622.845 -674.694,1087.96 -1101.58,1374.38c-439.472,294.755 -920.339,401.544 -1374.35,298.461c-104.011,-23.456 -206.789,-58.339 -306.789,-104.322Z"
      style="fill:#010101;fill-rule:nonzero;" />
    <path
      d="M36445.7,4188.86c-70.372,-48.461 -87.961,-144.756 -39.505,-215.122c48.455,-70.372 144.755,-87.967 215.122,-39.511c495.372,341.361 931.483,713.277 1308.33,1114.82c378.089,403.078 697.228,837.339 956.795,1302.15c41.355,74.384 14.505,168.828 -59.878,210.189c-74.694,41.35 -168.828,14.506 -210.189,-60.194c-246.911,-441.35 -550.928,-854.933 -912.344,-1240.12c-362.345,-386.422 -782.095,-743.833 -1258.33,-1072.22Z"
      style="fill:#010101;fill-rule:nonzero;" />
    <path
      d="M33372.4,14862.6c23.45,-82.105 109.256,-129.939 191.356,-106.483c82.405,23.45 130.25,108.944 106.788,191.361c-216.355,754.317 -494.133,1350.31 -816.044,1794.44c-316.05,436.422 -676.889,728.4 -1064.82,882.411c-393.827,156.483 -812.039,170.061 -1237.97,48.15c-300,-86.111 -604.011,-239.817 -905.245,-458.028c-69.133,-50.005 -84.566,-146.916 -34.261,-216.361c50.311,-69.133 146.917,-84.567 216.361,-34.261c271.6,196.611 542.589,334.261 808.022,410.494c360.495,103.4 711.423,92.906 1039.17,-37.033c333.056,-132.411 646.95,-389.511 928.117,-777.161c300.928,-415.428 562.655,-979.011 768.522,-1697.53Z"
      style="fill:#010101;fill-rule:nonzero;" />
    <path
      d="M29566.3,45269.6c28.7,80.561 -13.889,169.139 -94.445,197.528c-80.555,28.4 -169.138,-13.883 -197.533,-94.439c-773.767,-2176.54 -1485.81,-4134.88 -2135.18,-5874.67c-652.472,-1748.76 -1250,-3298.15 -1791.67,-4647.53c-31.794,-79.311 6.789,-169.444 85.8,-201.233c79.322,-31.789 169.445,6.789 201.239,86.111c538.883,1342.28 1137.34,2894.14 1794.44,4654.63c660.184,1769.44 1372.84,3729.32 2137.35,5879.61l-0,-0.011Z"
      style="fill:#010101;fill-rule:nonzero;" />
    <path
      d="M15797.6,46945.7c28.089,80.55 -14.505,168.828 -95.061,196.911c-80.555,28.089 -168.822,-14.505 -196.911,-95.055c-437.961,-1250.62 -918.211,-2461.11 -1440.43,-3631.49c-522.223,-1170.68 -1086.73,-2301.23 -1692.6,-3391.36c-41.355,-74.694 -14.505,-168.822 59.878,-210.183c74.689,-41.672 168.828,-14.505 210.183,59.872c611.117,1098.46 1179.33,2237.35 1704.94,3415.44c525.928,1178.39 1009.26,2397.22 1450,3655.86Z"
      style="fill:#010101;fill-rule:nonzero;" />
    <path
      d="M38372.4,28882.9c-2605.87,-1193.52 -3770.99,-2827.47 -4451.24,-4770.99c-193.822,2224.07 704.939,4096.61 2695.68,5617.28c-15.122,3495.06 -1018.21,4304.94 -3009.57,2430.24c937.966,1161.42 2020.06,2241.67 3246.91,3241.36c859.261,-2231.79 1365.43,-4404.63 1518.21,-6517.89l-0,-0.005Z"
      style="fill:#f68f70;" />
    <path
      d="M48695.7,17696.8c69.445,49.695 85.806,146.295 36.417,215.739c-49.694,69.75 -146.294,85.8 -215.739,36.423c-1296.61,-924.995 -2457.41,-1918.83 -3332.1,-3075.93c-794.444,-1051.54 -1352.78,-2237.04 -1562.04,-3626.55c-1464.51,2382.41 -2869.13,2857.1 -4188.27,3302.47c-1228.08,414.816 -2379.32,803.7 -3428.71,2820.68c-447.838,1179.32 -996.594,1958.95 -1645.67,2338.58c-657.716,384.255 -1405.56,360.8 -2242.29,-70.678c-285.183,29.933 -538.577,28.389 -759.872,-4.328c-241.978,-36.105 -447.228,-109.561 -615.433,-220.367c-394.139,-221.605 -703.706,-532.716 -928.706,-932.405c-213.272,-378.395 -349.689,-836.733 -409.566,-1374.08c-154.323,-108.022 -295.062,-236.105 -420.989,-381.172c-516.356,-594.445 -788.273,-1479.63 -769.756,-2460.18c17.906,-970.062 320.067,-2036.73 949.383,-3006.48c294.756,-454.316 662.039,-887.961 1105.25,-1280.24c207.406,-1607.72 632.406,-3021.61 1275,-4241.36c595.067,-1129.32 1376.54,-2091.05 2344.45,-2885.18c-340.122,-68.211 -682.411,-184.261 -1025.92,-347.844c-461.728,-219.439 -926.856,-525 -1394.76,-915.117c-65.433,-54.939 -74.078,-152.778 -19.444,-218.211c42.283,-50.617 109.877,-67.283 168.483,-47.533c814.85,225.928 1742.32,304.633 2781.83,236.116c1049.38,-68.827 2211.72,-287.966 3486.42,-656.483l8.023,-2.161c1426.54,-334.567 2828.39,-272.228 4204.32,186.417c1367.9,455.866 2707.41,1303.09 4018.52,2541.05c170.061,119.439 357.722,258.639 562.655,417.589c200,154.939 414.822,326.85 643.211,515.122c1958.02,-149.072 3509.26,543.206 4675,1802.16c1300.61,1404.94 2113.89,3514.82 2470.06,5940.72l3.395,28.4c284.261,2132.71 568.522,4265.74 2439.82,5465.43c71.912,45.984 92.9,141.978 46.6,213.895c-45.983,71.6 -141.966,92.589 -213.577,46.605c-1991.67,-1276.86 -2285.49,-3481.48 -2579.32,-5686.11l-3.388,-23.461c-347.839,-2367.59 -1134.88,-4419.76 -2390.44,-5775.94c-1113.27,-1202.16 -2601.54,-1857.72 -4485.8,-1697.53c-38.889,3.089 -79.011,-8.644 -111.423,-35.494c-251.538,-208.023 -479.627,-391.362 -683.327,-549.073c-205.873,-159.877 -390.439,-296.916 -553.095,-410.805c-9.25,-5.556 -17.894,-12.034 -25.916,-19.75c-1280.87,-1211.11 -2584.26,-2037.66 -3909.88,-2479.63c-1320.06,-440.122 -2666.05,-499.377 -4037.35,-178.088c-1294.76,373.461 -2476.54,595.988 -3545.07,666.055c-793.206,52.467 -1525,20.983 -2195.68,-93.828c259.261,178.084 516.667,328.084 772.222,449.689c433.645,206.172 862.039,331.172 1284.57,374.689c41.05,4.633 80.25,25.006 107.1,60.495c51.544,67.9 38.266,164.816 -29.628,216.355c-1061.73,806.489 -1908.06,1808.34 -2538.89,3005.87c-632.406,1200 -1048.46,2597.83 -1248.45,4192.9c-4.945,36.733 -22.534,72.228 -52.778,98.155c-440.745,383.023 -803.706,808.328 -1093.52,1254.63c-596.606,919.133 -882.717,1927.47 -899.689,2842.9c-16.978,904.933 228.394,1716.05 694.75,2253.09c123.766,142.278 263.272,265.428 417.594,365.739c38.272,24.689 65.122,66.05 69.756,115.122c50.616,524.378 177.155,966.356 379.322,1325.31c197.222,349.694 467.589,621.605 810.489,814.511l16.666,9.566c130.25,86.106 294.139,144.134 491.667,173.145c207.1,30.867 449.695,30.25 727.167,-1.85c29.933,-3.083 61.105,2.161 89.5,17.283c752.783,398.772 1414.2,431.484 1984.26,98.456c588.272,-343.822 1093.52,-1073.45 1516.04,-2188.89l7.406,-16.356c1108.03,-2134.57 2317.91,-2543.52 3609.27,-2979.32c1334.57,-450.617 2760.18,-932.1 4250.31,-3555.87c24.389,-42.588 68.211,-72.833 120.372,-77.777c85.184,-7.406 160.189,55.25 167.906,140.127c141.35,1524.69 709.567,2802.47 1557.09,3924.08c853.395,1129.32 1991.36,2102.47 3264.2,3010.49l0,0.033Z"
      style="fill:#010101;fill-rule:nonzero;" />
    <path
      d="M1151.68,75365.1c-80.245,29.011 -169.134,-12.35 -198.15,-92.595c-29.011,-80.244 12.655,-169.133 92.9,-198.144l26730.6,-9680.89c80.25,-29.011 169.139,12.344 198.15,92.9c29.011,80.25 -12.35,168.828 -92.594,197.839l-26730.9,9680.89l0.028,-0Z"
      style="fill:#010101;fill-rule:nonzero;" />
    <path
      d="M24924.1,51307.9c1584.88,-1110.5 3375,-2409.56 5370.68,-3897.22c-66.672,47.528 -160.189,34.255 -211.111,-30.861c-8.645,-11.428 -15.745,-23.461 -20.989,-35.811c-176.544,-422.839 -331.172,-800.306 -463.583,-1132.1c-112.961,-282.411 -208.023,-525.928 -284.878,-731.172c-5421.3,232.1 -9912.33,775.306 -13472.2,1629.02c50,185.794 100.622,370.666 151.855,554.316c6083.67,-975.927 10087.9,-976.239 12012.7,-0.927c-424.695,604.316 -1452.17,1819.13 -3082.41,3644.75l-0.011,-0Z"
      style="fill:#f68f70;" />
  </g>
</svg>