<?xml version="1.0" encoding="UTF-8" standalone="no"?>
<!DOCTYPE svg PUBLIC "-//W3C//DTD SVG 1.1//EN" "http://www.w3.org/Graphics/SVG/1.1/DTD/svg11.dtd"><svg width="100%" height="100%" viewBox="0 0 65058 49143" version="1.1"
  xmlns="http://www.w3.org/2000/svg" xmlns:xlink="http://www.w3.org/1999/xlink" xml:space="preserve" xmlns:serif="http://www.serif.com/"
  style="fill-rule:evenodd;clip-rule:evenodd;stroke-linejoin:round;stroke-miterlimit:2;">
  <g>
    <rect x="0" y="0" width="65057.4" height="49142.7" style="fill:#f9f9ff;" />
    <path
      d="M8204.76,34502.7c4237.04,10170.7 10089.5,4741.97 17530.2,1424.07c4309.88,-1921.61 7415.44,-2036.11 11815.7,-408.639c5007.41,1852.47 10756.5,3412.96 15229.3,-926.545c10075.9,-9774.67 411.116,-30203 -11615.4,-27791.4c-4073.14,816.661 -7184.28,4667.07 -11165.1,5432.19c-3870.68,744.139 -7090.72,-3373.15 -10358,-5127.53c-5775.94,-3101.57 -10215.1,1314.26 -12324.1,7710.56c-2210.49,6704.94 -1624.38,13296.3 887.344,19687.3l-0.011,0.011Z"
      style="fill:#e8e8f7;fill-rule:nonzero;" />
    <path
      d="M64407.1,6894.3l0,12386.1c0,705.861 -577.472,1283.02 -1283.34,1283.02l-13537.3,0c-705.872,0 -1283.64,-577.161 -1283.64,-1283.02l-0,-12386.1c-0,-705.772 577.772,-1283.18 1283.64,-1283.18l13537.3,-0c705.867,-0 1283.34,577.405 1283.34,1283.18Z"
      style="fill:#8a6bff;fill-rule:nonzero;" />
    <path d="M64407.1,6894.3l0,1423.08l-16104.3,-0l0,-1423.08c0,-705.772 577.772,-1283.18 1283.64,-1283.18l13537.3,-0c705.866,-0 1283.34,577.405 1283.34,1283.18l0.016,0Z"
      style="fill:#292f52;fill-rule:nonzero;" />
    <path
      d="M62482.1,6957.64c0,248.055 200.917,449.161 449.067,449.161c247.839,-0 449.078,-201.106 449.078,-449.161c-0,-247.995 -201.239,-449.106 -449.078,-449.106c-248.15,0 -449.067,201.111 -449.067,449.106Z"
      style="fill:#8a6bff;fill-rule:nonzero;" />
    <path
      d="M60798.2,6957.64c0,248.055 200.928,449.161 449.073,449.161c248.144,-0 449.072,-201.106 449.072,-449.161c-0,-247.995 -200.928,-449.106 -449.072,-449.106c-248.145,0 -449.073,201.111 -449.073,449.106Z"
      style="fill:#8a6bff;fill-rule:nonzero;" />
    <path
      d="M55274.9,6957.69c0,247.011 -277.778,449.106 -617.283,449.106l-4732.1,-0c-339.506,-0 -617.284,-202.095 -617.284,-449.106c0,-247.066 277.778,-449.161 617.284,-449.161l4732.1,0c339.505,0 617.283,202.095 617.283,449.161Z"
      style="fill:#cfd2d3;fill-rule:nonzero;" />
    <path
      d="M59103.2,10440.5l-8939.5,-0c-177.161,-0 -320.983,-143.828 -320.983,-320.989c0,-177.161 143.822,-320.678 320.983,-320.678l8939.5,0c177.162,0 320.684,143.517 320.684,320.678c-0,177.161 -143.522,320.989 -320.684,320.989Z"
      style="fill:#e5e7e8;fill-rule:nonzero;" />
    <path
      d="M57263.8,11930l-5389.51,-0c-177.161,-0 -320.678,-143.828 -320.678,-320.989c0,-177.156 143.517,-320.678 320.678,-320.678l5389.51,0c177.161,0 320.672,143.522 320.672,320.678c0,177.161 -143.511,320.989 -320.672,320.989Z"
      style="fill:#e5e7e8;fill-rule:nonzero;" />
    <path
      d="M60471.5,13419.5l-8597.22,-0c-177.162,-0 -320.678,-143.828 -320.678,-320.984c-0,-177.161 143.516,-320.683 320.678,-320.683l8597.22,0c177.161,0 320.683,143.522 320.683,320.683c0,177.156 -143.522,320.984 -320.683,320.984Z"
      style="fill:#e5e7e8;fill-rule:nonzero;" />
    <path
      d="M59103.2,14909l-4876.23,-0c-177.161,-0 -320.672,-143.523 -320.672,-320.989c-0,-177.161 143.511,-320.684 320.672,-320.684l4876.23,0c177.162,0 320.684,143.523 320.684,320.684c-0,177.466 -143.522,320.989 -320.684,320.989Z"
      style="fill:#e5e7e8;fill-rule:nonzero;" />
    <path
      d="M61968.8,16398.6l-10094.4,0c-177.162,0 -320.678,-143.522 -320.678,-320.989c-0,-177.161 143.516,-320.677 320.678,-320.677l10094.4,-0c177.161,-0 320.678,143.516 320.678,320.677c-0,177.467 -143.517,320.989 -320.678,320.989Z"
      style="fill:#e5e7e8;fill-rule:nonzero;" />
    <path
      d="M54569.3,17888.1l-4405.56,0c-177.161,0 -320.983,-143.522 -320.983,-320.678c-0,-177.161 143.822,-320.988 320.983,-320.988l4405.56,-0c176.85,-0 320.672,143.827 320.672,320.988c-0,177.156 -143.822,320.678 -320.672,320.678Z"
      style="fill:#e5e7e8;fill-rule:nonzero;" />
    <path
      d="M59103.2,19377.6l-7228.72,0c-177.161,0 -320.678,-143.516 -320.678,-320.678c0,-177.472 143.517,-320.988 320.678,-320.988l7228.72,-0c177.162,-0 320.684,143.516 320.684,320.988c-0,177.162 -143.522,320.678 -320.684,320.678Z"
      style="fill:#e5e7e8;fill-rule:nonzero;" />
    <path
      d="M8512.48,20256.6c-115.744,546.295 -402.783,1029.32 -802.472,1390.43c-273.144,248.455 -598.767,439.811 -958.333,555.555c-253.084,81.789 -523.145,125 -804.011,125c-280.862,0 -550.923,-43.211 -804.012,-125c-358.027,-115.744 -683.644,-305.555 -956.794,-554.011c-399.689,-361.111 -686.728,-845.683 -805.55,-1391.98c-37.039,-177.466 -57.1,-362.655 -57.1,-552.466c0,-189.817 20.061,-375.006 58.644,-554.012c117.278,-546.3 404.317,-1029.33 804.006,-1390.43c273.15,-248.461 598.767,-438.272 958.339,-554.011c253.083,-81.794 523.144,-125.006 802.467,-125.006c280.866,0 550.927,43.212 804.011,125.006c359.566,115.739 685.189,307.094 958.333,555.556c398.15,361.105 685.183,844.133 802.472,1388.89c38.578,179.006 58.639,364.195 58.639,554.012c0,189.811 -20.061,375 -58.639,552.466Zm1867.28,-552.466c-0,-171.3 -9.262,-341.056 -29.323,-507.717l953.7,-550.928c-237.65,-1206.79 -873.45,-2271.61 -1763.88,-3049.38l-952.161,549.383c-270.067,-202.161 -564.817,-373.455 -878.089,-507.717l0,-1100.31c-552.467,-189.811 -1146.61,-291.661 -1762.34,-291.661c-615.745,0 -1208.33,101.85 -1760.81,290.122l0,1101.85c-313.272,134.262 -608.022,305.556 -878.083,507.717l-953.706,-550.928c-890.555,779.323 -1526.29,1844.14 -1763.95,3050.93l955.25,552.467c-20.061,166.666 -29.322,334.878 -29.322,506.178c-0,171.294 9.261,341.05 29.322,506.172l-953.739,550.922c236.145,1208.34 871.884,2273.15 1763.98,3050.93l952.161,-549.384c270.061,200.623 564.811,371.912 878.083,507.717l0,1100.31c552.472,188.267 1145.06,290.122 1760.81,290.122c615.738,0 1209.88,-101.855 1762.34,-291.666l0,-1098.77c313.272,-135.805 608.022,-307.094 878.089,-507.717l952.161,549.384c890.433,-779.322 1526.23,-1842.59 1762.34,-3050.93l-952.161,-550.922c20.061,-165.122 29.323,-334.878 29.323,-506.172Z"
      style="fill:#3e4463;fill-rule:nonzero;" />
    <path
      d="M20354.8,6548.03c0,679.016 -555.856,1234.57 -1234.57,1234.57l-6789.83,-0c-679.017,-0 -1234.57,-555.556 -1234.57,-1234.57l-0,-2538.67c-0,-679.011 555.555,-1234.57 1234.57,-1234.57l6789.83,-0c678.711,-0 1234.57,555.555 1234.57,1234.57l0,2538.67Z"
      style="fill:#8a6bff;fill-rule:nonzero;" />
    <path
      d="M17530.4,6918.41c-76.544,-0 -153.394,-28.395 -213.272,-85.617c-123.15,-117.839 -127.467,-313.211 -9.567,-436.356l1069.13,-1117.69l-1069.13,-1117.68c-117.9,-123.15 -113.583,-318.522 9.567,-436.394c123.15,-117.839 318.517,-113.389 436.422,9.727l1273.14,1331.02c114.2,119.289 114.2,307.378 -0,426.667l-1273.14,1331.02c-60.5,63.367 -141.672,95.312 -223.15,95.312Z"
      style="fill:#e5e7e8;fill-rule:nonzero;" />
    <path
      d="M13919.9,6918.41c-81.172,-0 -162.35,-31.945 -223.15,-95.312l-1273.14,-1331.02c-113.889,-119.289 -113.889,-307.378 -0,-426.667l1273.14,-1331.02c117.906,-123.116 313.272,-127.622 436.422,-9.727c123.145,117.872 127.778,313.244 9.878,436.394l-1069.14,1117.68l1069.14,1117.69c117.9,123.145 113.267,318.517 -9.878,436.356c-59.566,57.222 -136.422,85.617 -213.272,85.617Z"
      style="fill:#e5e7e8;fill-rule:nonzero;" />
    <path
      d="M15223.6,6918.47c-36.105,0 -72.839,-6.389 -108.639,-19.878c-159.566,-60.122 -240.122,-238.116 -180.25,-397.622l1003.09,-2662.04c60.189,-159.533 238.273,-240.15 397.839,-180.028c159.572,60.123 240.128,238.117 179.939,397.623l-1003.08,2662.03c-46.606,123.678 -164.2,199.911 -288.895,199.911Z"
      style="fill:#e5e7e8;fill-rule:nonzero;" />
    <path
      d="M51199.9,38978.2c0,2830.25 -8064.5,9262.33 -18012.3,9262.33c-9948.17,0 -18012.3,-6432.11 -18012.3,-9262.06c0,-2830.24 8064.22,-5124.69 18012.3,-5124.69c9947.83,0 18012.3,2294.45 18012.3,5124.38l0,0.033Z"
      style="fill:#d8d8e6;fill-rule:nonzero;" />
    <path
      d="M42820.4,31187.5c1237.03,91.361 7328.11,2069.14 7482.39,3766.67c154.322,1697.53 -12808.7,9182.11 -18489.5,9104.94c-5680.56,-77.161 -16541.3,-7098.78 -16155.6,-8770.67c385.8,-1671.61 4493.52,-3904.63 7021.61,-4100.93c3163.58,-245.678 20141.1,-0 20141.1,-0l-0,-0.017Z"
      style="fill:#292f52;fill-rule:nonzero;" />
    <path
      d="M31501,40377.7c861.728,208.984 2366.36,1366.39 2906.48,1675c540.122,308.645 2893.52,1736.11 3086.42,2353.39c192.906,617.283 154.322,2430.55 -1157.4,2970.68c-1311.73,540.122 -5709.89,-964.511 -6288.56,-1504.63c-655.867,-4282.37 1453.08,-5494.44 1453.08,-5494.44l-0.022,0Z"
      style="fill:#292f52;fill-rule:nonzero;" />
    <path
      d="M15647.4,35108.2c-442.594,655.867 -568.522,3279.32 10.183,4205.25c578.7,925.922 6828.72,5092.59 14043.2,6558.67c-231.484,-1080.25 2297.83,-4259.85 2812.03,-4822.5c-5272.53,-2594.78 -12842.9,-6983.06 -16865.4,-5941.39l0.005,-0.028Z"
      style="fill:#3e4463;fill-rule:nonzero;" />
    <path
      d="M32041,41615.5c-3304.94,-372.805 -7517.28,1594.76 -7822.56,2829.32c-304.939,1234.57 -34.878,2700.62 736.727,3433.64c771.606,733.028 5851.22,424.695 8423.44,-1581.79c527.161,-2083.33 -1337.66,-4681.17 -1337.66,-4681.17l0.039,0Z"
      style="fill:#292f52;fill-rule:nonzero;" />
    <path
      d="M31993.2,42211c-1379.32,-55.25 -4066.98,652.161 -4838.58,1346.61c462.967,1195.98 810.189,2932.1 424.383,3510.8c1543.21,270.061 4543.83,-501.544 5396.91,-1195.99c81.483,-1118.83 -982.712,-3661.42 -982.712,-3661.42Z"
      style="fill:#8a3eff;fill-rule:nonzero;" />
    <path
      d="M50302.6,34954.4c592.283,1003.09 925.928,3626.54 -0,4552.47c-925.928,925.928 -10802.4,5915.72 -16923.8,6790.11c-925.922,-874.383 -1594.75,-4166.67 -1337.65,-4681.17c4115.43,-3137.66 13425.9,-7253.11 18261.4,-6661.44l-0.011,0.033Z"
      style="fill:#3e4463;fill-rule:nonzero;" />
    <path
      d="M42279.3,27108.7c164.2,2078.39 -887.345,2314.82 -1620.37,2816.36c-733.022,501.539 -501.544,2006.17 -231.477,4552.47c-1658.96,1311.73 -10648.2,3279.32 -15625,617.283c115.738,-733.022 192.9,-2739.19 77.155,-3626.54c-115.739,-887.345 -540.122,-1388.89 -2044.75,-2276.23c-1504.63,-887.344 77.161,-10416.7 733.022,-11226.8c655.867,-810.189 4706.8,-3356.48 6828.72,-3665.12c-0,-0 3240.74,-192.906 4552.47,-0c1311.73,192.9 6057.11,2430.55 7330.22,3896.6c1273.15,1466.05 -115.738,7446 0,8912.06l0.012,-0.033Z"
      style="fill:#8a3eff;fill-rule:nonzero;" />
    <path
      d="M37751,35288.2c205.861,-51.233 4526.85,-771.606 6430.22,-2160.49c2667.91,-1946.61 -825.305,-13630.2 -1719.44,-14655.8c0,0 -684.256,-1124.07 -2633.33,-2054.01c-1484.56,891.356 -1130.86,4993.52 -1021.6,5829.61c333.027,2546.91 1386.11,6058.67 1619.13,6867.89c-565.744,617.283 -3292.28,1851.85 -3292.28,1851.85l617.289,4320.99l0.016,-0Z"
      style="fill:#8a6bff;fill-rule:nonzero;" />
    <path
      d="M27874.3,35546c-0,-0 -1850.62,85.8 -3600.62,-514.511c-6294.11,-2159.26 -3213.89,-14211.1 -706.172,-17066.1c-0,0 843.827,-908.644 1952.78,-1474.08c911.112,377.778 1644.76,2779.63 1108.02,5525.62c-502.773,2572.22 -1223.14,7561.72 -1223.14,8076.22c566.05,411.422 2212.04,1234.57 2212.04,1234.57l257.095,4218.21l-0,0.023Z"
      style="fill:#8a6bff;fill-rule:nonzero;" />
    <path d="M41298.2,36883.2l-17279,-0l-748.461,-10862.7c4479.32,-704.939 15033,-704.939 18775.9,0l-748.456,10862.7Z" style="fill:#cfd2d3;fill-rule:nonzero;" />
    <path
      d="M33816,31187.5c0,639.2 -518.211,1157.41 -1157.41,1157.41c-639.194,0 -1157.4,-518.211 -1157.4,-1157.41c-0,-639.505 518.211,-1157.4 1157.4,-1157.4c639.2,-0 1157.41,517.9 1157.41,1157.4Z"
      style="fill:#e6e8e8;fill-rule:nonzero;" />
    <path d="M41298.2,36883.2l0,900l-17291.1,-0l12.039,-900l17279,-0Z" style="fill:#a2a9ad;fill-rule:nonzero;" />
    <path
      d="M35347.6,12062.5c-66.667,694.75 -128.7,2417.9 308.639,3035.18c-1671.91,1466.05 -4886.73,1183.02 -5941.33,179.939c231.484,-823.15 231.484,-2520.68 0,-3060.8c-231.483,-540.127 2726.24,-951.55 2726.24,-951.55l2906.48,797.228l-0.022,0Z"
      style="fill:#ffa993;fill-rule:nonzero;" />
    <path
      d="M27313.2,7819.69c-2059.57,-4888.39 1012.96,-5042.19 1012.96,-5042.19c668.516,-2246.33 4833.03,-2593.55 6224.06,-2109.05c2289.2,797.317 3868.52,3237.91 2824.07,6984c0,0 -1287.35,5615.5 -4392.9,5605.94c-3115.43,-9.572 -5668.22,-5438.74 -5668.22,-5438.74l0.033,0.033Z"
      style="fill:#292f52;fill-rule:nonzero;" />
    <path
      d="M37996.5,8963.36c-0,1190.12 -1062.65,1530.24 -1723.15,1530.24c-660.8,0 -469.445,-1062.65 -469.445,-1730.24c0,-667.744 91.667,-1330.56 752.473,-1330.56c660.494,0 1440.12,308.645 1440.12,1530.56Z"
      style="fill:#ffa993;fill-rule:nonzero;" />
    <path
      d="M26628.8,9182.8c0,1190.13 1062.66,1530.25 1723.15,1530.25c660.494,-0 469.444,-1062.65 469.444,-1730.25c0,-667.588 -91.666,-1330.34 -752.466,-1330.34c-660.495,-0 -1440.13,308.644 -1440.13,1530.34Z"
      style="fill:#ffa993;fill-rule:nonzero;" />
    <path d="M33756,14214.3c-1212.04,548.767 -3061.11,480.245 -3885.49,0c15.739,-377.777 24.694,-853.394 -0,-1127.16c975.928,312.656 3885.49,1127.16 3885.49,1127.16Z"
      style="fill:#ff7d71;fill-rule:nonzero;" />
    <path
      d="M27786,7998.64c0,3703.61 1851.85,6301.44 5195.37,6301.44c3343.52,0 4115.12,-4372.53 4115.12,-6301.44c-0,-1929.02 -3112.04,-4140.9 -4783.65,-4140.9c-4063.89,-0 -4526.85,4140.9 -4526.85,4140.9Z"
      style="fill:#ffb29e;fill-rule:nonzero;" />
    <path
      d="M27786,8963.36c1363.27,-861.789 1721.91,-2278.7 2031.79,-2456.48c1794.14,-1028.77 3038.27,780.216 5555.56,-102.839c-0,-0 514.505,1586.7 1723.15,2072.91c56.477,-1022.5 -1245.37,-2768.7 -2011.73,-3462.47c-766.044,-693.767 -5216.97,-1460.93 -6039.22,208.639c-822.528,1669.57 -1259.57,3740.25 -1259.57,3740.25l0.028,0Z"
      style="fill:#ff7d71;fill-rule:nonzero;" />
    <path
      d="M27786,8963.36c1003.08,-655.861 1491.67,-2122.13 1568.83,-2687.97c2263.27,-1671.76 3960.8,488.739 6198.44,-154.316c180.239,823.089 1003.08,2036.73 1543.21,2355.87c99.694,-646.577 453.089,-1714.91 170.367,-2435.12c-283.023,-720.217 -624.695,-3264.42 -5078.4,-3392.97c-4454.01,-128.55 -5122.53,2726.38 -5019.75,3600.86c102.778,874.45 617.284,2713.64 617.284,2713.64l0.016,0Z"
      style="fill:#292f52;fill-rule:nonzero;" />
    <path
      d="M34486,9197.92c0,271.611 -129.628,491.977 -289.505,491.977c-159.567,0 -289.2,-220.366 -289.2,-491.977c-0,-271.6 129.633,-491.973 289.2,-491.973c159.877,0 289.505,220.373 289.505,491.973Z"
      style="fill:#292f52;fill-rule:nonzero;" />
    <path
      d="M31332.1,9197.92c0,271.611 -129.633,491.977 -289.2,491.977c-159.872,0 -289.505,-220.366 -289.505,-491.977c-0,-271.6 129.633,-491.973 289.505,-491.973c159.567,0 289.2,220.373 289.2,491.973Z"
      style="fill:#292f52;fill-rule:nonzero;" />
    <path
      d="M33802.6,7419.47c-0,0 1.85,-6.639 5.244,-19.133c4.011,-12.067 8.95,-32.934 18.823,-52.439c18.833,-41.911 50.311,-98.178 100.005,-148.517c24.383,-26.761 52.467,-53.955 86.111,-74.905c31.789,-24.106 68.211,-46.178 107.406,-64.417c40.122,-16.05 82.1,-33.611 127.161,-41.606c44.755,-10.25 91.05,-15.616 138.272,-16.422c46.917,-0.366 93.828,2.622 139.817,12.717c45.989,6.422 90.122,22.994 131.483,40.033c41.661,14.167 78.356,42.25 112.339,64.656c34.883,20.094 63.272,49.511 87.661,77.289c50.922,51.111 80.211,109.939 96.906,152.527c16.672,42.717 22.194,70.312 21.883,70.312l2.506,12.283c1.233,7.067 -3.434,13.861 -10.528,15.217c-2.434,0.527 -5.217,0.061 -7.717,-0.989c0,-0 -16.939,-7.9 -46.605,-21.7c-29.289,-14.689 -71.878,-33.239 -124.345,-51.167c-25.933,-10.311 -54.017,-20.406 -85.189,-27.194c-30.861,-7.528 -62.655,-17.778 -97.228,-21.484c-68.205,-11.45 -141.966,-17.928 -215.738,-14.011c-147.534,-1.572 -294.75,31.05 -400,67.439c-106.478,34.072 -172.528,68.183 -172.528,68.183c-6.484,3.328 -14.2,0.828 -17.595,-5.561c-1.85,-3.022 -2.161,-6.266 -1.233,-9.261l3.089,-11.85Z"
      style="fill:#ff7167;fill-rule:nonzero;" />
    <path
      d="M30293.2,7418.97c0,0 5.25,-27.494 22.223,-67.494c16.977,-39.573 44.755,-91.639 87.655,-139.417c20.984,-24.567 44.75,-50.556 73.15,-70.828c28.395,-21.083 58.022,-46.266 92.589,-62.011c67.595,-36.172 148.15,-58.489 233.028,-65.711c84.567,-5.956 174.689,7.072 255.244,37.967c80.561,34.289 150.928,83.055 197.223,140.027c23.766,27.656 41.05,57.995 54.627,83.923c14.2,24.939 19.45,54.783 25.006,75.433c9.255,43.917 8.022,70.306 8.022,70.306l-0.617,13.122c-0.311,7.066 -6.172,12.494 -13.272,12.25c-2.161,-0.122 -4.633,-0.895 -6.483,-2.1c-0,-0 -13.889,-8.95 -37.961,-24.689c-22.839,-18.245 -60.806,-34.139 -104.939,-54.878c-45.678,-17.933 -100.617,-33.522 -161.728,-41.883c-61.111,-7.161 -127.161,-8.3 -192.9,-1.822c-132.411,7.466 -263.583,39.044 -358.95,70.311c-96.3,30 -158.333,55.244 -158.333,55.244c-6.178,2.467 -13.272,-0.461 -15.745,-6.572c-0.922,-2.256 -1.233,-4.661 -0.616,-6.85l2.777,-14.328Z"
      style="fill:#ff7167;fill-rule:nonzero;" />
    <path
      d="M33183.8,10322.9c0,-0 7.406,21.6 19.756,59.872c11.105,36.728 33.944,89.505 57.711,153.394c49.077,127.778 118.211,299.695 155.561,489.817c16.05,95.372 28.083,196.911 -0.311,300c-12.967,51.233 -43.211,102.467 -84.261,136.417c-41.05,34.572 -88.267,50.927 -128.084,57.1c-81.794,13.272 -141.355,-5.245 -183.339,-12.039c-40.739,-11.723 -63.266,-19.439 -63.266,-19.439c-12.656,-4.628 -19.445,-18.828 -14.817,-31.484c3.394,-9.877 12.039,-16.05 21.917,-16.355l1.85,-0.311c-0,-0 23.15,-0.928 62.033,-0.928c37.967,-1.539 95.683,-4.322 149.389,-24.378c54.317,-20.989 91.661,-55.25 102.155,-122.533c11.728,-66.05 2.162,-152.467 -14.505,-237.656c-34.256,-171.916 -86.111,-349.689 -110.489,-488.577c-13.583,-69.139 -17.289,-128.706 -20.372,-171.3c-2.467,-43.517 0.928,-65.739 0.928,-65.739l0.305,-2.161c2.161,-13.273 14.817,-22.534 28.395,-20.678c9.261,1.544 16.666,8.333 19.444,16.978Z"
      style="fill:#ff7167;fill-rule:nonzero;" />
    <path
      d="M31639.9,12234.7c0,0 39.2,16.05 105.25,47.528c33.333,18.211 73.456,31.483 116.667,46.3c42.9,16.05 91.666,32.711 149.383,47.528c55.245,16.978 116.978,30.861 182.406,44.133c64.2,16.361 135.494,21.3 206.483,35.189c72.533,7.717 147.222,15.122 223.456,20.678c76.855,4.939 154.322,7.411 232.405,6.483c78.089,3.7 156.178,-4.011 233.028,-6.483c75.922,-8.639 152.778,-8.639 224.383,-21.606c72.528,-9.872 142.9,-18.516 208.334,-32.711c66.972,-10.805 125.922,-29.633 184.255,-41.361c54.322,-18.211 107.1,-31.483 151.545,-47.528c42.288,-19.139 83.333,-31.483 113.888,-45.994c59.262,-31.167 96.295,-48.456 96.295,-48.456l7.411,-3.394c24.383,-11.417 53.7,-0.928 65.122,23.455c8.334,17.9 4.628,38.273 -7.405,52.473c-0,-0 -28.084,33.022 -83.028,90.122c-57.711,52.161 -146.911,119.444 -264.817,180.555c-59.561,25.617 -123.455,62.345 -195.055,83.028c-70.989,25.306 -146.3,50.611 -226.234,66.661c-79.633,20.373 -162.655,31.173 -247.844,44.139c-85.183,5.556 -171.606,16.05 -258.639,14.506c-87.039,2.778 -174.078,-5.556 -259.572,-12.967c-85.495,-6.789 -168.822,-24.994 -249.072,-41.355c-79.323,-20.984 -156.484,-38.273 -226.85,-68.517c-35.184,-13.583 -69.445,-26.545 -102.473,-39.506c-31.789,-16.361 -62.344,-32.1 -91.972,-47.533c-58.644,-28.083 -111.111,-62.65 -155.867,-96.294c-46.294,-31.173 -82.405,-60.184 -106.477,-86.728c-52.167,-51.239 -80.867,-82.411 -80.867,-82.411c-18.517,-20.367 -17.283,-51.85 3.083,-70.678c14.506,-13.272 35.495,-16.356 52.778,-9.256Z"
      style="fill:#ff7167;fill-rule:nonzero;" />
  </g>
</svg>